<?xml version="1.0" encoding="utf-8"?>
<!-- Generator: Adobe Illustrator 15.0.0, SVG Export Plug-In . SVG Version: 6.00 Build 0)  -->
<!DOCTYPE svg PUBLIC "-//W3C//DTD SVG 1.1//EN" "http://www.w3.org/Graphics/SVG/1.1/DTD/svg11.dtd">
<svg version="1.1" id="Layer_1" xmlns="http://www.w3.org/2000/svg" xmlns:xlink="http://www.w3.org/1999/xlink" x="0px" y="0px"
	 width="800px" height="600px" viewBox="0 0 800 600" enable-background="new 0 0 800 600" xml:space="preserve">
<g>
	<g>
		<g>
			<path fill="#FFFFFF" d="M262.827,262.55h24.701c9.489,0,16.739,2.646,21.755,7.933c5.015,5.293,7.526,12.681,7.526,22.167v54.473
				c0,10.906-2.645,18.951-7.934,24.13c-5.294,5.178-12.898,7.77-22.821,7.77h-23.229V262.55z M279.513,363.318h7.688
				c4.687,0,8.016-1.169,9.979-3.518c1.962-2.343,2.943-6.024,2.943-11.043V292.65c0-4.581-0.926-8.122-2.782-10.633
				c-1.854-2.507-5.232-3.763-10.14-3.763h-7.688V363.318z"/>
			<path fill="#FFFFFF" d="M343.474,343.852v11.289c0,2.616,0.735,4.634,2.206,6.052c1.473,1.417,3.462,2.126,5.971,2.126
				c3.163,0,5.261-0.926,6.299-2.782c1.032-1.852,1.662-3.705,1.881-5.56h16.685c0,3.491-0.571,6.763-1.719,9.814
				c-1.144,3.053-2.809,5.671-4.988,7.851c-2.184,2.292-4.802,4.091-7.852,5.399c-3.054,1.307-6.49,1.963-10.306,1.963
				c-5.127,0-9.546-1.088-13.25-3.271c-3.71-2.182-6.543-5.072-8.506-8.672c-1.203-2.18-2.02-4.687-2.456-7.524
				c-0.437-2.835-0.653-5.942-0.653-9.324v-27.317c0-3.379,0.217-6.487,0.653-9.325c0.436-2.834,1.253-5.341,2.456-7.524
				c1.963-3.598,4.795-6.487,8.506-8.669c3.703-2.182,8.122-3.272,13.25-3.272c3.816,0,7.278,0.654,10.388,1.962
				c3.108,1.311,5.724,3.139,7.85,5.482c2.126,2.346,3.765,5.098,4.908,8.26c1.147,3.165,1.719,6.544,1.719,10.144v22.9H343.474z
				 M343.474,330.765h16.357v-9.487c0-3.162-0.738-5.535-2.208-7.115c-1.473-1.579-3.464-2.371-5.972-2.371
				c-2.509,0-4.499,0.792-5.971,2.371c-1.471,1.58-2.206,3.953-2.206,7.115V330.765z"/>
			<path fill="#FFFFFF" d="M385.514,296.085h16.686v7.526c2.07-2.399,4.197-4.418,6.379-6.055c2.182-1.634,5.342-2.453,9.488-2.453
				c6.869,0,11.72,2.617,14.56,7.852c0.981,1.856,1.688,4.146,2.126,6.87c0.435,2.728,0.656,6.381,0.656,10.962v31.572
				c0,5.998-0.164,10.414-0.492,13.249c-0.328,2.836-1.039,5.126-2.127,6.871c-1.419,2.18-3.246,3.982-5.479,5.396
				c-2.238,1.418-5.374,2.129-9.408,2.129c-3.271,0-6.189-0.735-8.75-2.208c-2.565-1.474-4.771-3.571-6.625-6.298h-0.328v41.059
				h-16.686V296.085z M418.721,323.075c0-3.377-0.654-6.104-1.963-8.179c-1.309-2.07-3.383-3.105-6.215-3.105
				c-2.512,0-4.527,0.953-6.054,2.86c-1.53,1.91-2.29,4.392-2.29,7.442v32.228c0,2.618,0.791,4.771,2.372,6.461
				c1.579,1.692,3.57,2.536,5.972,2.536c3.16,0,5.315-0.981,6.459-2.945c1.146-1.963,1.719-4.253,1.719-6.871V323.075z"/>
			<path fill="#FFFFFF" d="M446.039,270.895h16.684v25.19h10.309v13.088h-10.309v45.968c0,1.963,0.19,3.491,0.574,4.581
				c0.379,1.09,0.98,1.904,1.801,2.449c0.814,0.55,1.878,0.877,3.189,0.983c1.307,0.111,2.886,0.164,4.744,0.164v15.704h-6.873
				c-3.816,0-7.008-0.598-9.568-1.799c-2.562-1.2-4.609-2.724-6.134-4.582c-1.53-1.854-2.649-3.949-3.355-6.298
				c-0.711-2.343-1.062-4.604-1.062-6.788v-50.383h-8.344v-13.088h8.344V270.895z"/>
			<path fill="#FFFFFF" d="M476.301,262.55h16.688v41.551h0.325c1.743-2.617,3.843-4.769,6.297-6.463
				c2.454-1.689,5.589-2.535,9.407-2.535c2.071,0,4.145,0.355,6.217,1.063c2.069,0.71,3.926,1.88,5.56,3.516
				c1.638,1.637,2.946,3.739,3.928,6.3c0.981,2.562,1.473,5.697,1.473,9.404v63.636h-16.688v-57.419
				c0-3.052-0.709-5.452-2.126-7.198c-1.418-1.741-3.434-2.614-6.052-2.614c-3.165,0-5.347,0.981-6.543,2.943
				c-1.202,1.963-1.798,4.799-1.798,8.506v55.782h-16.688V262.55z"/>
		</g>
		<g>
			<path fill="#FFFFFF" d="M266.081,215.165c0.747-1.542,1.766-2.805,3.05-3.787c1.285-0.981,2.791-1.704,4.523-2.173
				c1.728-0.467,3.646-0.7,5.748-0.7c1.588,0,3.178,0.15,4.769,0.454c1.586,0.306,3.012,0.876,4.274,1.719
				c1.263,0.842,2.291,2.021,3.083,3.54c0.795,1.52,1.191,3.496,1.191,5.924v19.209c0,1.778,0.866,2.666,2.596,2.666
				c0.514,0,0.981-0.094,1.4-0.281v3.715c-0.514,0.094-0.968,0.164-1.365,0.209c-0.398,0.049-0.901,0.072-1.508,0.072
				c-1.123,0-2.022-0.15-2.7-0.458c-0.678-0.302-1.203-0.734-1.577-1.295c-0.375-0.562-0.62-1.229-0.735-1.999
				c-0.118-0.77-0.177-1.624-0.177-2.558h-0.137c-0.797,1.168-1.604,2.209-2.419,3.118c-0.819,0.914-1.732,1.674-2.735,2.281
				c-1.006,0.607-2.151,1.075-3.436,1.401c-1.285,0.327-2.817,0.492-4.591,0.492c-1.681,0-3.261-0.2-4.733-0.596
				c-1.471-0.397-2.755-1.027-3.854-1.893c-1.099-0.864-1.965-1.964-2.594-3.296c-0.631-1.332-0.948-2.908-0.948-4.732
				c0-2.524,0.561-4.499,1.684-5.925c1.123-1.423,2.604-2.509,4.45-3.258c1.847-0.749,3.927-1.274,6.242-1.577
				c2.312-0.304,4.66-0.598,7.046-0.877c0.933-0.093,1.752-0.211,2.452-0.351c0.702-0.138,1.285-0.385,1.754-0.736
				c0.465-0.35,0.829-0.828,1.085-1.435c0.257-0.608,0.385-1.404,0.385-2.386c0-1.494-0.244-2.722-0.735-3.68
				c-0.492-0.957-1.169-1.716-2.033-2.278s-1.87-0.948-3.015-1.158c-1.145-0.21-2.372-0.314-3.679-0.314
				c-2.804,0-5.096,0.666-6.871,1.997c-1.776,1.332-2.711,3.471-2.804,6.415h-4.417C264.89,218.531,265.333,216.707,266.081,215.165
				z M288.167,225.961c-0.284,0.515-0.82,0.888-1.613,1.121c-0.797,0.235-1.497,0.399-2.104,0.493
				c-1.87,0.325-3.798,0.618-5.786,0.876c-1.987,0.256-3.796,0.641-5.431,1.155c-1.639,0.516-2.981,1.252-4.031,2.208
				c-1.052,0.959-1.577,2.326-1.577,4.102c0,1.123,0.222,2.115,0.665,2.98c0.443,0.864,1.041,1.611,1.788,2.243
				c0.746,0.63,1.612,1.112,2.593,1.439c0.984,0.325,1.985,0.489,3.015,0.489c1.684,0,3.296-0.257,4.84-0.771
				c1.542-0.513,2.884-1.262,4.031-2.243c1.143-0.982,2.053-2.175,2.733-3.576c0.675-1.401,1.014-2.99,1.014-4.768v-5.749H288.167z"
				/>
			<path fill="#FFFFFF" d="M317.118,195.675v20.75h0.14c0.469-1.307,1.134-2.453,1.998-3.434c0.864-0.981,1.861-1.812,2.981-2.49
				c1.121-0.675,2.337-1.179,3.646-1.506c1.307-0.327,2.618-0.491,3.925-0.491c2.758,0,5.154,0.513,7.186,1.542
				c2.033,1.027,3.728,2.417,5.085,4.17c1.353,1.753,2.359,3.785,3.012,6.1c0.656,2.314,0.983,4.756,0.983,7.326
				c0,2.572-0.328,5.013-0.983,7.325c-0.653,2.315-1.659,4.348-3.012,6.101c-1.358,1.752-3.052,3.131-5.085,4.137
				c-2.031,1.004-4.428,1.507-7.186,1.507c-2.946,0-5.573-0.679-7.885-2.035c-2.314-1.355-3.987-3.294-5.015-5.818h-0.14v6.872
				h-4.066v-50.057H317.118z M340.989,222.071c-0.443-1.847-1.143-3.494-2.102-4.944c-0.959-1.447-2.186-2.629-3.679-3.54
				c-1.497-0.91-3.296-1.367-5.4-1.367c-2.337,0-4.311,0.457-5.923,1.367c-1.612,0.911-2.921,2.092-3.927,3.54
				c-1.005,1.45-1.729,3.097-2.173,4.944c-0.443,1.846-0.667,3.704-0.667,5.573c0,1.871,0.224,3.729,0.667,5.573
				c0.443,1.849,1.167,3.497,2.173,4.943c1.006,1.45,2.315,2.629,3.927,3.542c1.612,0.912,3.586,1.367,5.923,1.367
				c2.104,0,3.903-0.455,5.4-1.367c1.493-0.913,2.72-2.092,3.679-3.542c0.959-1.446,1.659-3.094,2.102-4.943
				c0.443-1.844,0.669-3.702,0.669-5.573C341.658,225.774,341.432,223.917,340.989,222.071z"/>
			<path fill="#FFFFFF" d="M353.295,195.675v7.081h-4.417v-7.081H353.295z M353.295,209.555v36.177h-4.417v-36.177H353.295z"/>
			<path fill="#FFFFFF" d="M371.943,209.555v3.717h-7.363v24.396c0,1.45,0.197,2.584,0.596,3.401
				c0.396,0.819,1.391,1.272,2.981,1.367c1.263,0,2.522-0.071,3.786-0.21v3.716c-0.656,0-1.31,0.023-1.965,0.071
				c-0.656,0.045-1.307,0.071-1.963,0.071c-2.946,0-5.001-0.574-6.171-1.719c-1.167-1.145-1.728-3.262-1.679-6.344v-24.749h-6.313
				v-3.717h6.313v-10.866h4.414v10.866H371.943z"/>
			<path fill="#FFFFFF" d="M393.603,209.555v6.1h0.213c1.167-2.243,2.698-3.996,4.592-5.258c1.894-1.262,4.312-1.892,7.256-1.892
				c2.384,0,4.546,0.583,6.485,1.753c1.938,1.168,3.236,2.944,3.892,5.326c1.072-2.382,2.663-4.158,4.767-5.326
				c2.104-1.169,4.346-1.753,6.729-1.753c7.991,0,11.987,4.228,11.987,12.688v24.538h-4.417v-24.329
				c0-2.989-0.629-5.268-1.892-6.834c-1.262-1.565-3.482-2.348-6.658-2.348c-1.918,0-3.508,0.363-4.769,1.085
				c-1.263,0.727-2.269,1.697-3.015,2.911c-0.748,1.216-1.275,2.606-1.577,4.172c-0.306,1.564-0.456,3.187-0.456,4.872v20.472
				h-4.416v-24.538c0-1.214-0.129-2.371-0.387-3.471c-0.256-1.097-0.678-2.057-1.262-2.874c-0.585-0.816-1.369-1.46-2.348-1.928
				c-0.984-0.465-2.176-0.7-3.575-0.7c-1.872,0-3.495,0.34-4.873,1.016c-1.38,0.677-2.503,1.613-3.366,2.804
				c-0.864,1.192-1.507,2.595-1.928,4.206c-0.42,1.614-0.631,3.378-0.631,5.294v20.191h-4.417v-36.177H393.603z"/>
			<path fill="#FFFFFF" d="M466.342,210.048c2.124,1.027,3.912,2.408,5.362,4.135c1.446,1.73,2.546,3.752,3.294,6.063
				c0.748,2.313,1.123,4.781,1.123,7.397c0,2.617-0.375,5.082-1.123,7.396c-0.748,2.314-1.848,4.335-3.294,6.063
				c-1.45,1.731-3.238,3.098-5.362,4.104c-2.129,1.004-4.569,1.507-7.327,1.507c-2.76,0-5.2-0.503-7.327-1.507
				c-2.126-1.006-3.914-2.372-5.362-4.104c-1.448-1.728-2.55-3.749-3.296-6.063c-0.748-2.314-1.121-4.779-1.121-7.396
				c0-2.616,0.373-5.083,1.121-7.397c0.746-2.311,1.848-4.333,3.296-6.063c1.448-1.728,3.236-3.108,5.362-4.135
				c2.127-1.03,4.567-1.542,7.327-1.542C461.772,208.505,464.213,209.018,466.342,210.048z M453.478,213.553
				c-1.591,0.888-2.911,2.057-3.963,3.505c-1.052,1.45-1.847,3.096-2.386,4.941c-0.535,1.849-0.804,3.729-0.804,5.645
				c0,1.917,0.269,3.796,0.804,5.644c0.539,1.846,1.334,3.493,2.386,4.943s2.372,2.618,3.963,3.505
				c1.588,0.888,3.433,1.332,5.537,1.332s3.949-0.444,5.538-1.332c1.588-0.887,2.91-2.056,3.96-3.505
				c1.054-1.45,1.847-3.097,2.384-4.943c0.54-1.847,0.808-3.727,0.808-5.644c0-1.916-0.268-3.795-0.808-5.645
				c-0.537-1.845-1.33-3.491-2.384-4.941c-1.05-1.448-2.372-2.617-3.96-3.505c-1.589-0.888-3.434-1.333-5.538-1.333
				S455.065,212.665,453.478,213.553z"/>
			<path fill="#FFFFFF" d="M482.57,209.555v8.484h0.141c1.12-2.946,2.861-5.212,5.223-6.8c2.361-1.588,5.176-2.315,8.447-2.175
				v4.418c-2.011-0.093-3.832,0.176-5.469,0.805c-1.637,0.632-3.05,1.531-4.241,2.7c-1.191,1.169-2.113,2.56-2.769,4.172
				c-0.656,1.611-0.981,3.376-0.981,5.293v19.28h-4.419v-36.177H482.57z"/>
			<path fill="#FFFFFF" d="M498.45,233.778c0.442,1.707,1.156,3.238,2.135,4.592c0.983,1.358,2.22,2.479,3.717,3.366
				c1.497,0.888,3.296,1.332,5.4,1.332c3.225,0,5.75-0.842,7.57-2.524c1.821-1.683,3.083-3.927,3.788-6.73h4.414
				c-0.935,4.113-2.653,7.289-5.152,9.535c-2.5,2.244-6.042,3.365-10.62,3.365c-2.854,0-5.316-0.503-7.398-1.507
				c-2.077-1.006-3.774-2.384-5.081-4.137c-1.309-1.753-2.279-3.786-2.91-6.101c-0.634-2.312-0.946-4.753-0.946-7.325
				c0-2.383,0.312-4.72,0.946-7.011c0.631-2.288,1.602-4.333,2.91-6.134c1.307-1.799,3.004-3.248,5.081-4.346
				c2.082-1.097,4.545-1.647,7.398-1.647c2.896,0,5.373,0.583,7.429,1.753c2.058,1.168,3.728,2.697,5.015,4.591
				c1.284,1.893,2.206,4.067,2.769,6.521c0.561,2.453,0.793,4.943,0.7,7.464h-27.831
				C497.783,230.426,498.005,232.072,498.45,233.778z M520.322,220.283c-0.538-1.542-1.298-2.909-2.279-4.101
				c-0.98-1.194-2.173-2.149-3.574-2.876c-1.402-0.722-2.99-1.085-4.767-1.085c-1.825,0-3.436,0.363-4.838,1.085
				c-1.404,0.727-2.596,1.682-3.575,2.876c-0.983,1.192-1.768,2.569-2.35,4.135c-0.585,1.566-0.97,3.167-1.156,4.801h23.414
				C521.151,223.438,520.858,221.824,520.322,220.283z"/>
		</g>
		<g>
			<path fill="#FFFFFF" d="M543.863,380.312h1.544l-6.563,14.247h-1.515l-6.532-14.247h1.513l5.777,12.506L543.863,380.312z"/>
		</g>
	</g>
	<circle fill="none" stroke="#FFFFFF" stroke-width="2.2681" stroke-miterlimit="10" cx="399.58" cy="299.58" r="267.521"/>
</g>
</svg>
